<?xml version="1.0" encoding="utf-8"?>
<!-- Generator: Adobe Illustrator 16.0.0, SVG Export Plug-In . SVG Version: 6.00 Build 0)  -->
<!DOCTYPE svg PUBLIC "-//W3C//DTD SVG 1.1//EN" "http://www.w3.org/Graphics/SVG/1.1/DTD/svg11.dtd">
<svg version="1.1" id="圖層_1" xmlns="http://www.w3.org/2000/svg" xmlns:xlink="http://www.w3.org/1999/xlink" x="0px" y="0px"
	 width="71px" height="71px" viewBox="0 0 71 71" enable-background="new 0 0 71 71" xml:space="preserve">
<g>
	<g>
		
			<rect x="33.406" y="7.657" transform="matrix(0.7071 -0.7072 0.7072 0.7071 -11.8428 36.7262)" fill="#9B2323" width="10.001" height="50"/>
		<polygon fill="#9B2323" points="54.67,55.992 64.217,58.467 61.741,48.92 		"/>
		
			<rect x="12.193" y="9.445" transform="matrix(0.7071 -0.7072 0.7072 0.7071 -3.0561 15.5113)" fill="#9B2323" width="10.001" height="4"/>
	</g>
	<g>
		<path fill="#9B2323" d="M46.003,65.201c-1.063,0-2.133-0.066-3.207-0.213c-4.154-0.566-7.857-2.67-11.777-4.895
			c-6.938-3.939-14.115-8.016-25.041-4.338c-0.79,0.262-1.636-0.158-1.9-0.943c-0.264-0.785,0.158-1.635,0.943-1.9
			c12.199-4.1,20.316,0.506,27.479,4.572c3.662,2.078,7.12,4.043,10.703,4.531c10.309,1.408,21.07-5.721,21.179-5.793
			c0.685-0.463,1.62-0.281,2.081,0.408c0.462,0.688,0.279,1.619-0.409,2.082C65.62,59.004,56.263,65.201,46.003,65.201z"/>
	</g>
</g>
</svg>
