<?xml version="1.0" encoding="utf-8"?>
<!-- Generator: Adobe Illustrator 16.0.0, SVG Export Plug-In . SVG Version: 6.00 Build 0)  -->
<!DOCTYPE svg PUBLIC "-//W3C//DTD SVG 1.1//EN" "http://www.w3.org/Graphics/SVG/1.1/DTD/svg11.dtd">
<svg version="1.1" id="圖層_1" xmlns="http://www.w3.org/2000/svg" xmlns:xlink="http://www.w3.org/1999/xlink" x="0px" y="0px"
	 width="71px" height="71px" viewBox="0 0 71 71" enable-background="new 0 0 71 71" xml:space="preserve">
<path fill="#9B2323" d="M55.805,6.5H17.547C12.633,6.5,7.5,7.622,7.5,12.536v32.92c0,4.912,5.133,11.044,10.047,11.044H42.73
	l17.228,12.162L54.357,56.5h1.447c4.915,0,6.695-6.132,6.695-11.044v-32.92C62.5,7.622,60.72,6.5,55.805,6.5z M43.083,27.587
	c0.319-0.268,0.702-0.4,1.149-0.4s0.841,0.133,1.18,0.4c0.339,0.27,0.51,0.734,0.51,1.395c0,0.645-0.171,1.107-0.51,1.395
	c-0.339,0.285-0.732,0.428-1.18,0.428s-0.83-0.143-1.149-0.428c-0.324-0.287-0.484-0.75-0.484-1.395
	C42.599,28.321,42.759,27.856,43.083,27.587z M31.047,30.376c-0.338,0.285-0.732,0.428-1.18,0.428c-0.445,0-0.83-0.143-1.151-0.428
	c-0.321-0.287-0.483-0.75-0.483-1.395c0-0.66,0.162-1.125,0.483-1.395c0.321-0.268,0.706-0.4,1.151-0.4
	c0.447,0,0.842,0.133,1.18,0.4c0.34,0.27,0.51,0.734,0.51,1.395C31.557,29.626,31.387,30.089,31.047,30.376z M38.23,30.376
	c-0.34,0.285-0.734,0.428-1.18,0.428c-0.447,0-0.83-0.143-1.151-0.428c-0.321-0.287-0.482-0.75-0.482-1.395
	c0-0.66,0.161-1.125,0.482-1.395c0.321-0.268,0.704-0.4,1.151-0.4c0.445,0,0.84,0.133,1.18,0.4c0.34,0.27,0.51,0.734,0.51,1.395
	C38.74,29.626,38.57,30.089,38.23,30.376z"/>
</svg>
