<?xml version="1.0" encoding="utf-8"?>
<!-- Generator: Adobe Illustrator 16.0.0, SVG Export Plug-In . SVG Version: 6.00 Build 0)  -->
<!DOCTYPE svg PUBLIC "-//W3C//DTD SVG 1.1//EN" "http://www.w3.org/Graphics/SVG/1.1/DTD/svg11.dtd">
<svg version="1.1" id="圖層_1" xmlns="http://www.w3.org/2000/svg" xmlns:xlink="http://www.w3.org/1999/xlink" x="0px" y="0px"
	 width="38px" height="38px" viewBox="0 0 38 38" enable-background="new 0 0 38 38" xml:space="preserve">
<g>
	<circle fill="#646569" cx="19.161" cy="17.66" r="5.338"/>
	<path fill="#646569" d="M34.931,18.445c-2.975-3.344-6.01-5.757-9.085-7.225l-2.022-0.827c-1.703-0.579-3.415-0.871-5.135-0.871
		c-8.092,0-13.846,6.493-15.709,8.908c-0.33,0.475-0.936,1.67,0.146,2.882c1.93,2.054,3.889,3.727,5.87,5.016l1.73,1.02
		c2.726,1.456,5.49,2.196,8.274,2.196c8.048,0,13.766-6.017,15.914-8.281C36.051,20.097,35.2,18.797,34.931,18.445z M33.453,19.887
		c-1.987,2.094-7.264,7.657-14.452,7.657c-2.287,0-4.576-0.578-6.854-1.712l-1.766-0.993c-2.002-1.255-3.992-2.939-5.963-5.062
		c1.566-2.067,6.872-8.255,14.248-8.255c1.211,0,2.424,0.17,3.637,0.503l2.093,0.741c3.05,1.318,6.093,3.68,9.099,7.075
		C33.481,19.856,33.468,19.871,33.453,19.887z"/>
</g>
</svg>
