<?xml version="1.0" encoding="utf-8"?>
<!-- Generator: Adobe Illustrator 16.0.0, SVG Export Plug-In . SVG Version: 6.00 Build 0)  -->
<!DOCTYPE svg PUBLIC "-//W3C//DTD SVG 1.1//EN" "http://www.w3.org/Graphics/SVG/1.1/DTD/svg11.dtd">
<svg version="1.1" id="圖層_1" xmlns="http://www.w3.org/2000/svg" xmlns:xlink="http://www.w3.org/1999/xlink" x="0px" y="0px" width="425px" height="95px" viewBox="0 0 425 95" enable-background="new 0 0 425 95" xml:space="preserve">
<g>
	<path fill="#F7323F" d="M19.293,17.927c-1.801,1.803-2.697,3.996-2.697,6.531v14.854c0,2.563,0.896,4.779,2.697,6.578
		c1.809,1.79,4.008,2.707,6.568,2.707h41.827v-7.641H25.861c-0.451,0-0.83-0.145-1.16-0.486c-0.318-0.331-0.473-0.691-0.473-1.158
		V24.458c0-0.467,0.154-0.82,0.473-1.161c0.33-0.315,0.709-0.489,1.16-0.489h41.827V15.19H25.861
		C23.301,15.19,21.102,16.103,19.293,17.927"/>
	<path fill="#F7323F" d="M75.865,17.927c-1.809,1.803-2.721,3.996-2.721,6.531v14.854c0,2.563,0.912,4.779,2.721,6.578
		c1.8,1.79,4.002,2.707,6.561,2.707h41.846v-7.641H82.426c-0.451,0-0.831-0.145-1.159-0.486c-0.343-0.331-0.489-0.691-0.489-1.158
		v-3.425h35.853v-7.619H80.777v-3.81c0-0.467,0.146-0.82,0.489-1.161c0.328-0.315,0.708-0.489,1.159-0.489h41.846V15.19H82.426
		C79.867,15.19,77.665,16.103,75.865,17.927"/>
	<path fill="#F7323F" d="M341.184,15.177h-32.564c-2.553,0-4.762,0.91-6.568,2.729c-1.803,1.803-2.697,4.006-2.697,6.537v14.869
		c0,2.563,0.895,4.779,2.697,6.578c1.807,1.79,4.016,2.707,6.568,2.707h32.564c2.551,0,4.76-0.917,6.568-2.707
		c1.777-1.799,2.695-4.016,2.695-6.578V24.442c0-2.531-0.918-4.734-2.695-6.525C345.943,16.087,343.734,15.177,341.184,15.177 M306.969,24.442c0-0.451,0.148-0.826,0.492-1.156c0.322-0.328,0.707-0.479,1.158-0.479h32.564c0.449,0,0.813,0.15,1.156,0.479
		c0.318,0.33,0.48,0.705,0.48,1.156v14.869c0,0.467-0.162,0.827-0.48,1.158c-0.344,0.342-0.707,0.486-1.156,0.486h-32.564
		c-0.451,0-0.824-0.145-1.158-0.486c-0.344-0.331-0.492-0.691-0.492-1.158V24.442z"/>
	<path fill="#F7323F" d="M173.188,15.177v23.307l-37.799-22.807c-1.246-0.699-2.596-0.682-3.82,0.044
		c-1.217,0.724-1.873,1.868-1.873,3.292v29.584h7.625V26.491l37.807,21.594c1.238,0.692,2.58,0.68,3.813-0.053
		c1.219-0.717,1.873-1.863,1.873-3.29V15.177H173.188z"/>
	<path fill="#F7323F" d="M399.371,15.177v23.307l-37.805-22.807c-1.225-0.699-2.559-0.682-3.799,0.044
		c-1.24,0.724-1.867,1.868-1.867,3.292v29.584h7.627V26.491l37.791,21.594c1.24,0.692,2.559,0.68,3.805-0.053
		c1.225-0.717,1.883-1.863,1.883-3.29V15.177H399.371z"/>
	<polygon fill="#F7323F" points="186.246,15.19 186.246,22.808 207.98,22.808 207.98,48.597 215.635,48.597 215.635,22.808 
		237.355,22.808 237.355,15.19 	"/>
	<path fill="#F7323F" d="M293.906,26.515c0-6.263-5.061-11.324-11.324-11.324h-0.438c-0.053,0-0.059,0-0.125,0h-31.613
		c-1.838,0-3.484,0.573-4.928,1.689c-1.777,1.439-2.684,3.413-2.684,5.895v25.822h7.633V37.921h25.521l8.449,10.676h9.508
		l-8.811-11.061C290.143,36.377,293.906,31.884,293.906,26.515 M282.086,30.3l-31.643-0.012v-7.48h31.643
		c2.043,0,3.742,1.685,3.742,3.756C285.828,28.622,284.129,30.3,282.086,30.3"/>
	<rect x="226.783" y="60.999" fill="#646569" width="2.129" height="17.938"/>
	<path fill="#646569" d="M161.818,74.346c0,1.297,0.459,2.354,1.357,3.255c0.92,0.898,1.961,1.337,3.236,1.337h23.893v-2.155
		h-23.893c-0.647,0-1.238-0.243-1.698-0.7c-0.475-0.479-0.72-1.075-0.72-1.736v-3.178h23.25v-2.149h-23.25V65.58
		c0-0.664,0.245-1.24,0.72-1.717c0.46-0.473,1.051-0.704,1.698-0.704h23.893v-2.172h-23.893c-1.275,0-2.316,0.455-3.236,1.354
		c-0.898,0.927-1.357,1.972-1.357,3.239V74.346z"/>
	<path fill="#646569" d="M222.424,73.92c0-1.675-0.57-2.973-1.742-3.881c-0.967-0.768-2.02-1.17-3.281-1.17h-18.432
		c-1.088,0-1.889-0.354-2.385-1.131c-0.186-0.271-0.322-0.586-0.379-0.979c-0.076-0.203-0.096-0.472-0.096-0.737
		c0-1.087,0.373-1.882,1.127-2.376c0.301-0.171,0.609-0.319,0.967-0.379c0.23-0.063,0.494-0.108,0.742-0.108h23.479v-2.16h-23.455
		c-1.238,0-2.322,0.357-3.287,1.136c-1.168,0.926-1.736,2.205-1.736,3.896c0,1.24,0.371,2.339,1.121,3.276
		c0.928,1.169,2.217,1.742,3.902,1.742H217.4c0.262,0,0.516,0.06,0.779,0.108c0.352,0.073,0.664,0.194,0.918,0.375
		c0.779,0.487,1.16,1.308,1.16,2.387c0,0.258-0.014,0.513-0.066,0.756c-0.094,0.37-0.227,0.683-0.416,0.967
		c-0.496,0.766-1.299,1.14-2.375,1.14h-23.455v2.155H217.4c1.697,0,2.982-0.567,3.898-1.729
		C222.059,76.236,222.424,75.165,222.424,73.92"/>
	<path fill="#646569" d="M261.744,68.516h-12.162v2.145h9.998v3.686c0,0.661-0.254,1.233-0.709,1.736
		c-0.486,0.457-1.07,0.7-1.727,0.7h-19.24c-0.656,0-1.248-0.243-1.717-0.7c-0.48-0.503-0.723-1.075-0.723-1.736V65.58
		c0-0.664,0.242-1.24,0.723-1.717c0.469-0.488,1.061-0.717,1.717-0.717h23.826v-2.169h-23.826c-1.283,0-2.342,0.436-3.254,1.363
		c-0.896,0.9-1.34,1.959-1.34,3.239v8.766c0,1.284,0.43,2.354,1.34,3.255c0.889,0.898,1.971,1.337,3.254,1.337h19.24
		c1.275,0,2.346-0.438,3.252-1.337c0.91-0.9,1.348-1.971,1.348-3.255V68.516z"/>
	<path fill="#646569" d="M155.594,63.646c-1.749-1.77-3.902-2.659-6.359-2.659h-19.497v17.95h19.497c2.457,0,4.61-0.877,6.359-2.617
		c1.742-1.764,2.616-3.883,2.616-6.344C158.21,67.504,157.336,65.373,155.594,63.646 M154.053,74.779
		c-1.334,1.345-2.943,2.003-4.818,2.003h-17.346V63.159h17.346c1.875,0,3.484,0.667,4.818,1.982c1.32,1.34,1.999,2.95,1.999,4.835
		C156.052,71.842,155.373,73.461,154.053,74.779"/>
	<path fill="#646569" d="M291.746,60.999v15.083l-24.795-14.924c-0.365-0.205-0.701-0.205-1.051,0.012
		c-0.363,0.209-0.518,0.487-0.518,0.915v16.853h2.113V63.863l24.791,14.918c0.363,0.232,0.68,0.207,1.049,0
		c0.367-0.217,0.525-0.511,0.525-0.913V60.999H291.746z"/>
</g>
</svg>
